<svg xmlns="http://www.w3.org/2000/svg" width="54" height="54" viewBox="0 0 54 54">
  <g id="Outline" transform="translate(-16 -16)">
    <path id="Path_1432" data-name="Path 1432" d="M17.2,88.483l1.2-1.341a1.8,1.8,0,0,1-.6-1.342V51.6a1.8,1.8,0,0,1,1.8-1.8H42.1V48H19.6A3.6,3.6,0,0,0,16,51.6V85.8a3.606,3.606,0,0,0,1.2,2.683Z" transform="translate(0 -28.4)" fill="#fff"/>
    <path id="Path_1433" data-name="Path 1433" d="M59.6,89.8h18V88h-18A3.6,3.6,0,0,0,56,91.6v34.2a3.607,3.607,0,0,0,2.4,3.395l.6-1.7a1.8,1.8,0,0,1-1.2-1.7V91.6A1.8,1.8,0,0,1,59.6,89.8Z" transform="translate(-35.5 -63.9)" fill="#fff"/>
    <path id="Path_1434" data-name="Path 1434" d="M384,256h1.8v9.9H384Z" transform="translate(-326.6 -213)" fill="#fff"/>
    <path id="Path_1435" data-name="Path 1435" d="M138.7,248a2.7,2.7,0,1,0,2.7,2.7A2.7,2.7,0,0,0,138.7,248Zm0,3.6a.9.9,0,1,1,.9-.9A.9.9,0,0,1,138.7,251.6Z" transform="translate(-106.5 -205.9)" fill="#fff"/>
    <path id="Path_1436" data-name="Path 1436" d="M200,248h14.4v1.8H200Z" transform="translate(-163.3 -205.9)" fill="#fff"/>
    <path id="Path_1437" data-name="Path 1437" d="M200,280h18v1.8H200Z" transform="translate(-163.3 -234.3)" fill="#fff"/>
    <path id="Path_1438" data-name="Path 1438" d="M138.7,328a2.7,2.7,0,1,0,2.7,2.7A2.7,2.7,0,0,0,138.7,328Zm0,3.6a.9.9,0,1,1,.9-.9A.9.9,0,0,1,138.7,331.6Z" transform="translate(-106.5 -276.9)" fill="#fff"/>
    <path id="Path_1439" data-name="Path 1439" d="M200,328h18v1.8H200Z" transform="translate(-163.3 -276.9)" fill="#fff"/>
    <path id="Path_1440" data-name="Path 1440" d="M138.7,408a2.7,2.7,0,1,0,2.7,2.7A2.7,2.7,0,0,0,138.7,408Zm0,3.6a.9.9,0,1,1,.9-.9A.9.9,0,0,1,138.7,411.6Z" transform="translate(-106.5 -347.9)" fill="#fff"/>
    <path id="Path_1441" data-name="Path 1441" d="M200,440h16.2v1.8H200Z" transform="translate(-163.3 -376.3)" fill="#fff"/>
    <path id="Path_1442" data-name="Path 1442" d="M200,168h5.4v1.8H200Z" transform="translate(-163.3 -134.9)" fill="#fff"/>
    <path id="Path_1443" data-name="Path 1443" d="M200,200h5.4v1.8H200Z" transform="translate(-163.3 -163.3)" fill="#fff"/>
    <path id="Path_1444" data-name="Path 1444" d="M285.6,16H268.5a4.505,4.505,0,0,0-4.5,4.5V34a4.505,4.505,0,0,0,4.5,4.5H273V43a.9.9,0,0,0,1.486.683l6.047-5.183H285.6a4.505,4.505,0,0,0,4.5-4.5V20.5A4.505,4.505,0,0,0,285.6,16Zm2.7,18a2.7,2.7,0,0,1-2.7,2.7h-5.4a.9.9,0,0,0-.586.217L274.8,41.043V37.6a.9.9,0,0,0-.9-.9h-5.4a2.7,2.7,0,0,1-2.7-2.7V20.5a2.7,2.7,0,0,1,2.7-2.7h17.1a2.7,2.7,0,0,1,2.7,2.7Z" transform="translate(-220.1)" fill="#fff"/>
    <path id="Path_1445" data-name="Path 1445" d="M340.918,48h-.836A4.087,4.087,0,0,0,336,52.082V53.4h1.8V52.082a2.285,2.285,0,0,1,2.282-2.282h.836a2.282,2.282,0,0,1,1.614,3.9L340.8,55.432a4.055,4.055,0,0,0-1.2,2.886V59.7h1.8V58.318a2.267,2.267,0,0,1,.668-1.614l1.736-1.736A4.082,4.082,0,0,0,340.918,48Z" transform="translate(-284 -28.4)" fill="#fff"/>
    <path id="Path_1446" data-name="Path 1446" d="M368,168h1.8v1.8H368Z" transform="translate(-312.4 -134.9)" fill="#fff"/>
    <path id="Path_1447" data-name="Path 1447" d="M384,256h1.8v9.9H384Z" transform="translate(-326.6 -213)" fill="#fff"/>
    <path id="Path_1448" data-name="Path 1448" d="M128.3,166.4a1.8,1.8,0,0,1-1.7,1.2h-27a1.8,1.8,0,0,1-1.8-1.8V137.9h4.5a3.6,3.6,0,0,0,3.6-3.6v-4.5h7.2V128H105a.9.9,0,0,0-.636.264l-8.1,8.1A.9.9,0,0,0,96,137v28.8a3.6,3.6,0,0,0,3.6,3.6h27a3.607,3.607,0,0,0,3.395-2.4Zm-26-30.3H99.073l5.027-5.027V134.3A1.8,1.8,0,0,1,102.3,136.1Z" transform="translate(-71 -99.4)" fill="#fff"/>
    <path id="Path_1449" data-name="Path 1449" d="M229.7,360H205.4a.9.9,0,0,0-.463.129h0l-4.5,2.7a.9.9,0,0,0,0,1.544l4.5,2.7h0a.894.894,0,0,0,.463.129h22.5v.9a.9.9,0,0,1-.9.9h-9v1.8h9a2.7,2.7,0,0,0,2.7-2.7v-.9a3.6,3.6,0,0,0,0-7.2Zm-25.2,2.49v2.221l-1.851-1.11Zm1.8-.69h8.1v3.6h-8.1Zm9.9,3.6v-3.6h11.7v3.6Zm13.5,0v-3.6a1.8,1.8,0,1,1,0,3.6Z" transform="translate(-163.303 -305.3)" fill="#fff"/>
  </g>
</svg>
