<svg xmlns="http://www.w3.org/2000/svg" width="58.576" height="54" viewBox="0 0 58.576 54">
  <g id="XMLID_996_" transform="translate(0 -20)">
    <g id="XMLID_41_" transform="translate(0 20)">
      <path id="XMLID_4218_" d="M310.173,128.145a1.144,1.144,0,0,0,1.618-1.618l-.015-.015a1.144,1.144,0,0,0-1.618,1.618Z" transform="translate(-274.376 -114.029)" fill="#fff"/>
      <path id="XMLID_4221_" d="M54.254,44.941l3.988-3.988A1.144,1.144,0,0,0,57.432,39H49.166A24.942,24.942,0,1,0,7.3,62.576,25.119,25.119,0,0,0,11.89,66.2L8.443,72.292a1.144,1.144,0,0,0,1,1.708h5.892a1.144,1.144,0,0,0,1-.58l2.437-4.306a25.242,25.242,0,0,0,12.355,0l2.437,4.306a1.144,1.144,0,0,0,1,.58h5.892a1.144,1.144,0,0,0,1-1.708L37.992,66.2a25.124,25.124,0,0,0,4.585-3.627,24.856,24.856,0,0,0,6.59-11.7h8.266a1.144,1.144,0,0,0,.809-1.953ZM52.162,43.8H44.177l2.508-2.508H54.67Zm-37.5,27.915H11.4l2.49-4.4a24.6,24.6,0,0,0,2.63,1.118Zm23.817,0H35.218l-1.857-3.281a24.6,24.6,0,0,0,2.63-1.118Zm2.478-10.753a22.754,22.754,0,0,1-5.016,3.794c-.022.011-.045.021-.067.034l-.04.025a22.357,22.357,0,0,1-4.387,1.837,1.134,1.134,0,0,0-.178.051,22.875,22.875,0,0,1-12.66,0,1.137,1.137,0,0,0-.178-.051,22.355,22.355,0,0,1-4.386-1.837l-.04-.025c-.022-.012-.045-.023-.067-.034a22.751,22.751,0,0,1-5.016-3.794A22.652,22.652,0,1,1,46.8,39h-.592a1.144,1.144,0,0,0-.809.335l-3.036,3.036a17.627,17.627,0,0,0-1.994-5.942,1.144,1.144,0,1,0-2,1.106A15.192,15.192,0,0,1,40.217,43.8H35.173a10.3,10.3,0,1,0,0,2.288h5.04a15.315,15.315,0,1,1-7.866-14.572,1.144,1.144,0,0,0,1.106-2,17.745,17.745,0,0,0-10.865-2.03A17.619,17.619,0,1,0,42.371,47.514L45.4,50.546a1.144,1.144,0,0,0,.809.335H46.8A22.579,22.579,0,0,1,40.958,60.958ZM28.677,42.783a1.144,1.144,0,0,0-1.563-.419L24.369,43.95a1.144,1.144,0,0,0,0,1.982l2.746,1.585a1.143,1.143,0,0,0,1.626-1.432h4.127A7.947,7.947,0,0,1,30.6,50.6h0A8.007,8.007,0,1,1,32.868,43.8H28.741A1.141,1.141,0,0,0,28.677,42.783Zm18.009,5.81-2.508-2.508h7.984l2.509,2.508Z" transform="translate(0 -20)" fill="#fff"/>
    </g>
  </g>
</svg>
