<svg xmlns="http://www.w3.org/2000/svg" width="40" height="39.089" viewBox="0 0 40 39.089">
  <path id="dance" d="M38.576.331,27.389,6.791a3.407,3.407,0,1,0-5.473,3.159L20,11.06,18.078,9.954A3.409,3.409,0,1,0,12.6,6.791L1.415.332A.7.7,0,0,0,.461.589,3.49,3.49,0,0,0,1.738,5.356l8.182,4.724L9.53,15.111a7.233,7.233,0,0,1-.439,1.977l-1.144,3.05a5.429,5.429,0,0,0-.116,3.446l.531,1.772H6.65a2.094,2.094,0,1,0,0,4.188h3.49a.724.724,0,0,0,.077,0l2.643-.294-.526,7.887v.1a2.088,2.088,0,0,0,4.172.14L17.12,28.2H17.1a.7.7,0,0,0,0-.2l-1.359-5.891a9.164,9.164,0,0,1-.075-3.71L20,15.9l2.373,1.371.063.977-3.608,7.8a4.281,4.281,0,0,0-.258,2.767L20.7,37.361A2.191,2.191,0,0,0,22.817,39a2.167,2.167,0,0,0,2.122-2.594l-1.627-8.171a2.229,2.229,0,0,0,3.1-.536L28.768,24.4a3.456,3.456,0,0,0,.655-2.027l-.007-3.923.838-8.472,8-4.617A3.506,3.506,0,0,0,39.531.589a.7.7,0,0,0-.955-.258ZM24.024,5.265A2.02,2.02,0,1,1,22,7.284,2.019,2.019,0,0,1,24.024,5.265ZM13.942,7.289a2.024,2.024,0,1,1,4.041,0A2,2,0,0,1,16.7,9.16l-2.735-1.58a1.972,1.972,0,0,1-.022-.294ZM6.152,27.935a.672.672,0,0,1-.2-.485.7.7,0,0,1,.7-.7H8.782l.419,1.4H6.65A.679.679,0,0,1,6.152,27.935Zm8.269,9.985a.692.692,0,0,1-.691-.691v-.051l.54-8.088,1.4-.156-.558,8.339A.7.7,0,0,1,14.421,37.919Zm1.145-10.378-4.924.547-1.471-4.9a4.022,4.022,0,0,1,.086-2.555L10.4,17.578a8.612,8.612,0,0,0,.523-2.358l.425-5.47A.7.7,0,0,0,11,9.09L2.436,4.146a2.094,2.094,0,0,1-1.011-2.2L26.65,16.515a2.1,2.1,0,0,1-2.408.221l-7.014-4.048a.7.7,0,0,0-.988.322l-1.234,2.8a10.586,10.586,0,0,0-.628,6.609Zm.693-11.1c.01-.022.017-.046.027-.07l.92-2.085,1.392.8ZM28.024,22.37a2.062,2.062,0,0,1-.394,1.214l-2.359,3.308a.838.838,0,0,1-1.466-.8v-.011l2.057-4.627-1.275-.567L22.515,25.55,21.8,27.168a.7.7,0,0,0-.046.419l1.815,9.094a.776.776,0,0,1-1.514.336l-2.129-8.539a2.836,2.836,0,0,1,.172-1.853l3.678-7.957a.689.689,0,0,0,.063-.337l-.017-.263a3.426,3.426,0,0,0,4.355-1.209l-.15,1.517ZM37.551,4.149,29.245,8.944a.7.7,0,0,0-.349.536L28.268,15.9a.7.7,0,0,0-.209-.191l-6.665-3.848L23.5,10.647a3.3,3.3,0,0,0,3.7-2.135L38.566,1.951A2.107,2.107,0,0,1,37.551,4.149Zm0,0" transform="translate(0.007 -0.237)" fill="#fff"/>
</svg>
