<svg xmlns="http://www.w3.org/2000/svg" width="40" height="22.783" viewBox="0 0 40 22.783">
  <g id="bear" transform="translate(0 -110.186)">
    <g id="Group_156" data-name="Group 156" transform="translate(0 110.186)">
      <path id="Path_1173" data-name="Path 1173" d="M39.662,116.548a7.243,7.243,0,0,1-1.493-1.019c0-.044-.009-.093-.013-.146-.079-.926-.225-2.64-3.875-4.2a1.919,1.919,0,0,0-.417-.575,1.572,1.572,0,0,0-1.624-.33,2.182,2.182,0,0,0-1.047.671,5.245,5.245,0,0,0-1.529.376,3.626,3.626,0,0,1-1.37.3,2.156,2.156,0,0,1-.964-.465,4.31,4.31,0,0,0-2.492-.917,6.426,6.426,0,0,0-2.947.8,6.156,6.156,0,0,1-4.528.595,15.815,15.815,0,0,0-8.754,1.462c-1.484.891-3.151,3.569-4.953,7.96-1.143,2.785-1.989,5.417-2.2,6.073L.19,128.408a.648.648,0,0,0-.143.7l1.382,3.456a.648.648,0,0,0,.6.407H4.1a.648.648,0,0,0,0-1.3H4.06v-.819a12.446,12.446,0,0,0,6.011-2.894c.182-.167.362-.323.54-.47a7.025,7.025,0,0,0,.677,1.012,4.481,4.481,0,0,1,1.152,3.128c0,.41.314.572.567.7.119.062.284.143.49.243.349.169.7.333.7.333a.648.648,0,0,0,.275.061h3.456a.648.648,0,1,0,0-1.3H16.6a12.71,12.71,0,0,1,1.042-2.267c.267-.5.547-1.025.8-1.566a9.866,9.866,0,0,0,.909,1.9v1.4a1.828,1.828,0,0,0,1.828,1.828h3.658a.648.648,0,1,0,0-1.3H24.18l.572-5.144c.233-.12.568-.3.958-.556.351,1.1,1.536,4.026,4.366,4.865l2.668,2a.648.648,0,0,0,.389.13h4.147a.648.648,0,0,0,0-1.3h-.691c-.533,0-1.187-1.295-1.82-2.548a22.6,22.6,0,0,0-2.369-3.944,14.149,14.149,0,0,0-.62-4.653h2.735a.648.648,0,0,0,.508-.246c.353-.445,1.112-.445,1.565-.445a6.122,6.122,0,0,0,2.467-.351.648.648,0,0,0,.338-.386l.576-1.785A.648.648,0,0,0,39.662,116.548ZM16.5,128.8a11.254,11.254,0,0,0-1.23,2.877h-.657c-.319-.15-.658-.314-.889-.429a5.75,5.75,0,0,0-1.406-3.526,4.7,4.7,0,0,1-.642-1c1.968-1.234,3.837-1.35,6.234-1.35A11.905,11.905,0,0,1,16.5,128.8Zm17.108.914a19.274,19.274,0,0,0,1.082,1.963H33.347l-2.592-1.944a.648.648,0,0,0-.22-.107c-2.779-.751-3.677-4.328-3.686-4.363a.654.654,0,0,0-.032-.1,9.47,9.47,0,0,0,2.637-3.351,5.228,5.228,0,0,0,1.241-.529,15.848,15.848,0,0,1,.4,4.121.648.648,0,0,0,.148.42A20.382,20.382,0,0,1,33.61,129.711Zm4.651-11.326a7.325,7.325,0,0,1-1.675.157,3.387,3.387,0,0,0-2.354.691h-2.51a1.01,1.01,0,0,1-.987-.809l-.287-1.434a.648.648,0,1,0-1.271.254l.287,1.434a2.3,2.3,0,0,0,.8,1.327,3.717,3.717,0,0,1-1.42.626.648.648,0,0,0-.46.391,9.407,9.407,0,0,1-4.494,4.485.648.648,0,0,0-.387.523l-.627,5.644h-1.7a.532.532,0,0,1-.532-.532v-1.585a.648.648,0,0,0-.1-.347c-2.751-4.339-.178-7.384-.061-7.518a.648.648,0,0,0-.971-.859,6.751,6.751,0,0,0-1.292,2.6c-.053.2-.1.424-.138.659a.646.646,0,0,0-.158-.02c-3.246,0-5.772.211-8.733,2.936A10.347,10.347,0,0,1,3.412,129.6a.648.648,0,0,0-.648.648v1.425h-.3l-1.061-2.652,1.08-1.08a.649.649,0,0,0,.161-.269c.989-3.231,4.108-11.946,6.625-13.457a14.728,14.728,0,0,1,7.833-1.3,7.411,7.411,0,0,0,5.335-.693,5.224,5.224,0,0,1,2.395-.676,3.109,3.109,0,0,1,1.775.7,3.058,3.058,0,0,0,1.681.681,4.862,4.862,0,0,0,1.819-.383,5.842,5.842,0,0,1,.724-.231,2.693,2.693,0,0,0,.368,1.007.651.651,0,0,0,.549.3.647.647,0,0,0,.545-1,1.07,1.07,0,0,1-.161-.752c.067-.183.311-.3.505-.36s.273-.012.332.04a.785.785,0,0,1,.221.569.648.648,0,0,0,1.164.522c2.36,1.141,2.448,2.158,2.506,2.849.009.107.018.208.033.308.029.2.1.687,1.677,1.619Z" transform="translate(0 -110.186)" fill="#fff"/>
    </g>
  </g>
</svg>
