<svg xmlns="http://www.w3.org/2000/svg" width="40" height="38.192" viewBox="0 0 40 38.192">
  <g id="star" transform="translate(0 -11.011)">
    <path id="Path_1174" data-name="Path 1174" d="M39.945,25.444a1.116,1.116,0,0,0-.895-.755L26.571,22.915,20.956,11.627a1.113,1.113,0,0,0-.993-.616h0a1.106,1.106,0,0,0-.993.624L13.428,22.956.949,24.812a1.116,1.116,0,0,0-.895.755A1.1,1.1,0,0,0,.341,26.7L9.4,35.476,7.3,47.906a1.114,1.114,0,0,0,1.092,1.3,1.054,1.054,0,0,0,.517-.131l11.141-5.9,11.174,5.837a1.134,1.134,0,0,0,.509.123h0a1.114,1.114,0,0,0,1.108-1.108.866.866,0,0,0-.033-.255L30.652,35.411l9-8.826A1.086,1.086,0,0,0,39.945,25.444ZM28.7,34.237a1.1,1.1,0,0,0-.312.985L30.266,46l-9.7-5.065a1.123,1.123,0,0,0-1.034,0L9.856,46.059l1.814-10.8a1.107,1.107,0,0,0-.32-.977L3.5,26.667l10.829-1.609a1.1,1.1,0,0,0,.829-.608l4.811-9.827,4.877,9.8a1.128,1.128,0,0,0,.837.608l10.837,1.543Z" transform="translate(0)" fill="#fff"/>
  </g>
</svg>
