<svg id="university" xmlns="http://www.w3.org/2000/svg" width="40" height="40" viewBox="0 0 40 40">
  <g id="Group_133" data-name="Group 133">
    <g id="Group_132" data-name="Group 132">
      <path id="Path_1134" data-name="Path 1134" d="M187.733,260.667a.667.667,0,0,0,.667.667h2.667a.667.667,0,0,0,.667-.667v-4a.667.667,0,0,0-.667-.667H188.4a.667.667,0,0,0-.667.667v4Zm1.333-3.333H190.4V260h-1.333Z" transform="translate(-173.066 -236)" fill="#fff"/>
      <path id="Path_1135" data-name="Path 1135" d="M188.4,158.934h2.667a.667.667,0,0,0,.667-.667v-4a.667.667,0,0,0-.667-.667H188.4a.667.667,0,0,0-.667.667v4A.667.667,0,0,0,188.4,158.934Zm.667-4H190.4V157.6h-1.333Z" transform="translate(-173.067 -141.601)" fill="#fff"/>
      <path id="Path_1136" data-name="Path 1136" d="M120.476,12.571l9.657-5.794,9.657,5.794a.667.667,0,0,0,.687-1.143L130.8,5.623V1.333h3.333V2.667h-2a.667.667,0,1,0,0,1.333H134.8a.667.667,0,0,0,.667-.667V.667A.667.667,0,0,0,134.8,0h-4.667a.667.667,0,0,0-.667.667V5.623l-9.677,5.806a.667.667,0,0,0,.687,1.143Z" transform="translate(-110.133)" fill="#fff"/>
      <path id="Path_1137" data-name="Path 1137" d="M54.533,261.334a.667.667,0,0,0,.667-.667v-4a.667.667,0,0,0-.667-.667H51.867a.667.667,0,0,0-.667.667V258a.667.667,0,1,0,1.333,0v-.667h1.333v3.333A.667.667,0,0,0,54.533,261.334Z" transform="translate(-47.2 -236.001)" fill="#fff"/>
      <path id="Path_1138" data-name="Path 1138" d="M137.867,199.2V179.867a.667.667,0,0,0-1.333,0V199.2a.667.667,0,1,0,1.333,0Z" transform="translate(-125.867 -165.2)" fill="#fff"/>
      <path id="Path_1139" data-name="Path 1139" d="M103.067,367.735h22.667a.667.667,0,1,0,0-1.333h-6v-6.667h.667a.667.667,0,1,0,0-1.333h-12a.667.667,0,1,0,0,1.333h.667V366.4h-6a.667.667,0,0,0,0,1.333Zm12-4a.667.667,0,1,0,0-1.333v-2.667H118.4V366.4h-3.333Zm-4.667-4h3.333V362.4a.667.667,0,1,0,0,1.333V366.4H110.4Z" transform="translate(-94.4 -330.402)" fill="#fff"/>
      <path id="Path_1140" data-name="Path 1140" d="M412.934,366.933h-2.667a.667.667,0,0,0-.667.667v4a.667.667,0,0,0,.667.667h2.667a.667.667,0,0,0,.667-.667v-4A.667.667,0,0,0,412.934,366.933Zm-.667,4h-1.333v-2.667h1.333Z" transform="translate(-377.601 -338.266)" fill="#fff"/>
      <path id="Path_1141" data-name="Path 1141" d="M412.934,264.533h-2.667a.667.667,0,0,0-.667.667v4a.667.667,0,0,0,.667.667h2.667a.667.667,0,0,0,.667-.667v-4A.667.667,0,0,0,412.934,264.533Zm-.667,4h-1.333v-2.667h1.333Z" transform="translate(-377.601 -243.866)" fill="#fff"/>
      <path id="Path_1142" data-name="Path 1142" d="M96.934,494.933h-28a.667.667,0,0,0,0,1.333h28a.667.667,0,0,0,0-1.333Z" transform="translate(-62.934 -456.266)" fill="#fff"/>
      <path id="Path_1143" data-name="Path 1143" d="M401.2,187.733a.667.667,0,0,0-.667.667v.667H393.2a.667.667,0,1,0,0,1.333h7.333v22a.667.667,0,1,0,1.333,0v-24A.667.667,0,0,0,401.2,187.733Z" transform="translate(-361.867 -173.066)" fill="#fff"/>
      <path id="Path_1144" data-name="Path 1144" d="M273.067,260.667a.667.667,0,0,0,.667.667H276.4a.667.667,0,0,0,.667-.667v-4A.667.667,0,0,0,276.4,256h-2.667a.667.667,0,0,0-.667.667Zm1.333-3.333h1.333V260H274.4Z" transform="translate(-251.734 -236)" fill="#fff"/>
      <path id="Path_1145" data-name="Path 1145" d="M6.667,315.867c0-.087-.038-8.667-3.333-8.667S0,315.78,0,315.867a3.339,3.339,0,0,0,2.667,3.266v3.4a.667.667,0,0,0,1.333,0v-3.4A3.339,3.339,0,0,0,6.667,315.867Zm-3.333,2a2,2,0,0,1-2-2c0-3.321.892-7.333,2-7.333s2,4.012,2,7.333A2,2,0,0,1,3.333,317.867Z" transform="translate(0 -283.2)" fill="#fff"/>
      <path id="Path_1146" data-name="Path 1146" d="M359.734,191.334v-20a.667.667,0,1,0-1.333,0v20a.667.667,0,1,0,1.333,0Z" transform="translate(-330.401 -157.334)" fill="#fff"/>
      <path id="Path_1147" data-name="Path 1147" d="M273.734,158.934H276.4a.667.667,0,0,0,.667-.667v-4a.667.667,0,0,0-.667-.667h-2.667a.667.667,0,0,0-.667.667v4A.667.667,0,0,0,273.734,158.934Zm.667-4h1.333V157.6H274.4Z" transform="translate(-251.734 -141.601)" fill="#fff"/>
      <path id="Path_1148" data-name="Path 1148" d="M.667,196.4a.667.667,0,0,0,.667-.667V190.4H8.667a.667.667,0,0,0,0-1.333H1.333V188.4A.667.667,0,0,0,0,188.4v7.333A.667.667,0,0,0,.667,196.4Z" transform="translate(0 -173.068)" fill="#fff"/>
    </g>
  </g>
</svg>
