<svg xmlns="http://www.w3.org/2000/svg" width="39.969" height="40" viewBox="0 0 39.969 40">
  <g id="Без_названия" data-name="Без названия" transform="translate(-0.014 0.016)">
    <path id="Path_1168" data-name="Path 1168" d="M.634,32.574a.625.625,0,0,1-.2-1.215L3.826,30.2l10.747-6.871a.625.625,0,1,1,.675,1.052l-10.812,6.9a.625.625,0,0,1-.134.066L.834,32.53a.625.625,0,0,1-.2.044Z" transform="translate(0 -15.989)" fill="#fff"/>
    <path id="Path_1169" data-name="Path 1169" d="M6.31,40.027A.625.625,0,0,1,5.83,39.8l-.737-.884a.625.625,0,0,1,.959-.8l.394.472,14.145-8.432a.625.625,0,0,1,.625,1.074l-14.585,8.7A.625.625,0,0,1,6.31,40.027Z" transform="translate(-3.403 -20.712)" fill="#fff"/>
    <path id="Path_1170" data-name="Path 1170" d="M88.129,30.772a.625.625,0,0,1-.481-1.024l.209-.25-2.6-.887a.625.625,0,0,1-.134-.066L72.366,20.385a.625.625,0,1,1,.675-1.052l12.686,8.12,3.392,1.156a.625.625,0,0,1,.278.99l-.79.937A.625.625,0,0,1,88.129,30.772Z" transform="translate(-49.558 -13.238)" fill="#fff"/>
    <path id="Path_1171" data-name="Path 1171" d="M54.515,18.153,37.651,8.087h0L31.523,4.439,31.5,1.76l8.414,5.387h.019l.044.022a.624.624,0,0,0,.094.037h.044a.625.625,0,0,0,.116,0h.028a.625.625,0,0,0,.144-.019h.037a.625.625,0,0,0,.1-.016h.022l3.054-1.824a.625.625,0,0,0,.312-.531l.047-4.2A.625.625,0,0,0,43,.089L37.1,3.861,31.2.089a.625.625,0,0,0-.971.525L30.268,4.8a.625.625,0,0,0,.312.531l6.212,3.716h0l11.7,6.965-2.767,13.8H28.484L26.123,18.1a.625.625,0,0,0-1.224.247l2.464,12.214a.625.625,0,0,0,.625.5h3.279l.384,5.234-4.372.625a.626.626,0,1,0,.087,1.249h.091l3.854-.559-.625,1.49a.625.625,0,1,0,1.152.481l.793-1.9,3.223,1.508a.625.625,0,1,0,.534-1.131l-3.033-1.434.269-.3a.625.625,0,0,0-.778-.956l-.312-4.313H42.16l-.312,4.313a.625.625,0,0,0-.778.956l.269.3L38.3,38.056a.625.625,0,1,0,.534,1.131l3.207-1.512.793,1.9a.625.625,0,0,0,1.14-.478l-.625-1.49,3.854.559h.091a.626.626,0,1,0,.087-1.249l-4.372-.625.4-5.231h2.811a.625.625,0,0,0,.625-.5l2.78-13.873,4.251,2.536A.625.625,0,1,0,54.5,18.15ZM42.707,1.76l-.022,2.68-2.42,1.446-2-1.28Z" transform="translate(-17.107 0)" fill="#fff"/>
    <path id="Path_1172" data-name="Path 1172" d="M54.035,58.4h.084a.625.625,0,0,0,.625-.54l1.021-7.527a.625.625,0,0,0-.625-.709H42.7a.625.625,0,1,0,0,1.249h5.6v3.638H43.929l-.259-1.9a.63.63,0,1,0-1.249.169l1,7.327a.625.625,0,0,0,.625.54H53.82a.625.625,0,0,0,0-1.249H49.55V55.757h4.213L53.5,57.693a.625.625,0,0,0,.537.7Zm-5.734,1H44.585l-.5-3.638H48.3Zm1.249-4.888V50.869h4.881l-.509,3.638Z" transform="translate(-28.928 -34.134)" fill="#fff"/>
  </g>
</svg>
