<svg xmlns="http://www.w3.org/2000/svg" width="40" height="39.286" viewBox="0 0 40 39.286">
  <path id="XMLID_750_" d="M39.937,11.1,31.645,36.232a1.24,1.24,0,0,1-1.569.79L28,36.338a.8.8,0,1,1,.5-1.513l1.74.574,8.072-24.465L22.508,5.719l-2.243,6.8a.8.8,0,0,1-1.513-.5L21.1,4.886a1.244,1.244,0,0,1,1.569-.79L39.147,9.531a1.243,1.243,0,0,1,.79,1.569Zm-16.329-.717a.8.8,0,0,0,1.006-.507l.238-.72a.8.8,0,1,0-1.513-.5l-.238.72A.8.8,0,0,0,23.608,10.383Zm4.528,20.859-.238.72a.8.8,0,1,0,1.513.5l.238-.72a.8.8,0,0,0-1.513-.5Zm-5.607-14A2.745,2.745,0,0,1,26,15.492a2.494,2.494,0,0,1,1.6,1.38,2.494,2.494,0,0,1,2.1-.159,2.748,2.748,0,0,1,1.747,3.466c-.714,2.164-3.365,3.5-5.929,4.791a.8.8,0,0,1-1.07-.353C23.151,22.053,21.815,19.4,22.529,17.239Zm2.979,5.948c2.033-1.036,3.966-2.13,4.42-3.507a1.153,1.153,0,0,0-.733-1.454c-.486-.16-.8-.115-1.493.582a.8.8,0,0,1-1.354-.446c-.142-.972-.368-1.2-.853-1.356a1.152,1.152,0,0,0-1.454.732C23.588,19.114,24.491,21.144,25.508,23.187Zm-6.087-.406v7.771a.8.8,0,1,0,1.594,0V22.781a14.428,14.428,0,0,0-1.517-6.97,7.562,7.562,0,0,0-3.954-3.551l-5.316-2.4a.8.8,0,0,0-1.1.936l.443,1.625A15.081,15.081,0,0,0,2.4,18.589a.8.8,0,0,0-.126.43v4.93a.8.8,0,0,0,.8.8H6.151a.794.794,0,0,0,.08,0,2.54,2.54,0,0,0,2.416-2.5,2.325,2.325,0,0,1,3.169,2.165c0,1.473-.906,1.825-2.79,2.423-2.347.744-5.562,1.763-5.562,7.091v1.268a2.718,2.718,0,0,0-2.615,3.44,2.72,2.72,0,0,0,1.871,4.691h10.19a.8.8,0,1,0,0-1.594H2.719A1.124,1.124,0,0,1,1.8,39.957H12.062a.8.8,0,0,0,0-1.594H2.442a1.114,1.114,0,0,1-.1-.455A1.127,1.127,0,0,1,3.47,36.782h9.439a.8.8,0,1,0,0-1.594H5.058V33.921c0-4.161,2.162-4.847,4.45-5.572,1.829-.58,3.9-1.237,3.9-3.942a3.918,3.918,0,0,0-5.948-3.35.8.8,0,0,0-.383.681c0,1.08-.355,1.344-.969,1.414H3.863v-.965H4.2a.8.8,0,1,0,0-1.594h-.34V19.256a13.188,13.188,0,0,1,6.9-5.551.8.8,0,0,0,.545-.974l-.2-.721L14.852,13.7a.8.8,0,0,0,.095.042C17.79,14.782,19.421,18.078,19.421,22.781Zm-7.868-6.174a.8.8,0,1,0,0,1.594h.178a.8.8,0,1,0,0-1.594ZM26.126,34.295v7.338a1.689,1.689,0,0,1-1.687,1.687H17.1a1.689,1.689,0,0,1-1.687-1.687V34.295A1.689,1.689,0,0,1,17.1,32.607h7.338A1.689,1.689,0,0,1,26.126,34.295Zm-1.594,0a.1.1,0,0,0-.094-.094H17.1a.1.1,0,0,0-.094.094v7.338a.1.1,0,0,0,.094.093h7.338a.1.1,0,0,0,.094-.093Zm-2.283,1.433h-.175a.8.8,0,1,0,0,1.594h.175a.8.8,0,1,0,0-1.594Zm0,2.879h-.175a.8.8,0,1,0,0,1.594h.175a.8.8,0,0,0,0-1.594Zm-2.783-2.879H19.29a.8.8,0,1,0,0,1.594h.175a.8.8,0,1,0,0-1.594Zm0,2.879H19.29a.8.8,0,1,0,0,1.594h.175a.8.8,0,1,0,0-1.594Z" transform="translate(0 -4.033)" fill="#fff"/>
</svg>
