<svg xmlns="http://www.w3.org/2000/svg" width="33.333" height="40" viewBox="0 0 33.333 40">
  <g id="Outline" transform="translate(-96 -16)">
    <path id="Path_1175" data-name="Path 1175" d="M128.747,19.251a1.99,1.99,0,0,0-1.414-.584H115.55A4.667,4.667,0,0,0,111.334,16h-4a4.667,4.667,0,0,0,0,9.333v4h-6a.667.667,0,0,0-.667.667v3.027l-1.2,1.027A9.933,9.933,0,0,0,98.015,35.6l1.063.805a8.6,8.6,0,0,1,1.258-1.336l1.431-1.227a.667.667,0,0,0,.233-.506V30.667h5.333v2h-4V34h4v3.333A1.335,1.335,0,0,1,106,38.667h-5.225a5.9,5.9,0,0,1,.423-.649l-1.064-.8a7.3,7.3,0,0,0-.8,1.347c-.016.035-.03.071-.046.106H97.849c.082-.225.171-.448.271-.664l-1.211-.558a9.933,9.933,0,0,0-.233,7.751l3.871,9.955a1.325,1.325,0,0,0,1.243.85h15.088a1.325,1.325,0,0,0,1.243-.85l3.872-9.955A9.931,9.931,0,0,0,119.2,34.054L118,33.027V30a.667.667,0,0,0-.667-.667h-6v-4a4.684,4.684,0,0,0,4.217-2.667h11.783a2,2,0,0,0,1.414-3.415Zm-17.414,2.082H110v-4h1.333Zm-2.667-4v4h-1.333v-4ZM106,17.61v3.723h-1.933a3.358,3.358,0,0,1-.067-.667,3.32,3.32,0,0,1,2-3.057Zm2.667,13.057H110v2h-1.333Zm12.52,12.513a8.627,8.627,0,0,1-.438,1.532l-3.871,9.955H101.79l-3.871-9.955A8.6,8.6,0,0,1,97.483,40h1.361a7.261,7.261,0,0,0,.317,4.228l1.3,3.347,1.243-.483-1.3-3.347a5.936,5.936,0,0,1-.224-3.6c.012-.049.027-.1.04-.146H106a2.67,2.67,0,0,0,2.667-2.667V34H110v3.333A2.67,2.67,0,0,0,112.667,40h8.517a8.611,8.611,0,0,1,0,3.18Zm-2.856-8.114a8.547,8.547,0,0,1,2.488,3.6h-8.152a1.335,1.335,0,0,1-1.333-1.333V34h5.753Zm-1.664-4.4v2h-5.333v-2ZM111.334,24h-.667a.667.667,0,0,0-.667.667v4.667h-1.333V24.667A.667.667,0,0,0,108,24h-.667a3.308,3.308,0,0,1-2.357-.976,3.349,3.349,0,0,1-.308-.357H114A3.323,3.323,0,0,1,111.334,24Zm16-2.667H112.667V17.612a3.332,3.332,0,0,1,1.81,1.943.667.667,0,0,0,.629.444h12.228a.667.667,0,1,1,0,1.333ZM101.8,37.341l-.928-.957c.107-.1.22-.207.334-.3l.682-.585.868,1.012-.683.585C101.978,37.172,101.886,37.256,101.8,37.341Z" fill="#fff"/>
  </g>
</svg>
