<svg xmlns="http://www.w3.org/2000/svg" width="40" height="31.396" viewBox="0 0 40 31.396">
  <g id="whale" transform="translate(0 -55.07)">
    <path id="Path_1176" data-name="Path 1176" d="M26.475,61.94a.586.586,0,0,0-.586.586v.425a.586.586,0,0,0,1.172,0v-.425A.586.586,0,0,0,26.475,61.94ZM24.442,58.1a1.448,1.448,0,0,1,1.446,1.446.586.586,0,0,0,1.172,0A1.448,1.448,0,0,1,28.507,58.1a.586.586,0,1,0,0-1.172,2.615,2.615,0,0,0-2.032.969,2.615,2.615,0,0,0-2.032-.969.586.586,0,0,0,0,1.172ZM34.575,75.859a2.408,2.408,0,0,0,1.816-.827.586.586,0,0,0-.883-.77,1.235,1.235,0,0,1-1.865,0,.586.586,0,0,0-.883.77A2.408,2.408,0,0,0,34.575,75.859Zm-4.626-1.182v-1a.586.586,0,1,0-1.172,0v1a.586.586,0,1,0,1.172,0Zm6.193-6.216a15.267,15.267,0,0,0-9.1-2.816,15.807,15.807,0,0,0-7.671,1.9c-1.32.706-3.789,1.769-5.516.981a3.239,3.239,0,0,1-1.656-2.09,8.544,8.544,0,0,0,4.85-4.368.586.586,0,0,0-1.035-.55c-.942,1.77-2.625,3.616-4.625,3.891a.586.586,0,0,0-.492.711,4.654,4.654,0,0,0,2.471,3.473c1.992.908,4.621.02,6.559-1.017l.008,0a14.633,14.633,0,0,1,7.106-1.752c7.425,0,13.208,5.075,11.481,10.553a25.139,25.139,0,0,1-12.02,3.35,3.823,3.823,0,0,0-.015-.75.586.586,0,1,0-1.164.138c.271,2.281-2.534,4.167-4.687,4.876-1.3.429-2.359.4-2.828-.064-1.069-1.069.289-4.6,2.046-6.354a3.538,3.538,0,0,1,2.459-1.179h.05a.586.586,0,0,0,.009-1.172A5.091,5.091,0,0,0,18.4,78.449a14,14,0,0,1-3.977-3.719c-2.15-2.988-4.322-3.454-5.863-2.828a28.3,28.3,0,0,1-.985-5.92.586.586,0,0,0-.553-.546C3.1,65.226-.126,58.581,1.695,56.76c1.206-1.206,4.716-.192,6.956,2.009a.586.586,0,0,0,.821,0c2.24-2.2,5.75-3.214,6.956-2.009a2.771,2.771,0,0,1,.455,2.32.586.586,0,0,0,1.156.19,3.7,3.7,0,0,0-.783-3.338c-1.765-1.766-5.644-.616-8.2,1.62-2.55-2.237-6.429-3.386-8.2-1.62-.9.9-1.108,2.406-.578,4.233.817,2.817,3.247,5.914,6.158,6.385C7.1,74.782,10.42,80.363,16.31,83.155a3.038,3.038,0,0,0,.676,2.594c1.468,1.468,4.469.4,6.276-.707a33.3,33.3,0,0,0,3.785.208A16.442,16.442,0,0,0,33.161,84.1a.586.586,0,1,0-.44-1.086A17.151,17.151,0,0,1,24.684,84a5.66,5.66,0,0,0,1.55-2.108A25.245,25.245,0,0,0,37.711,79.1a9.4,9.4,0,0,1-2.642,2.66.586.586,0,1,0,.661.968C41.2,78.995,41.5,72.455,36.141,68.461ZM16.56,81.975a14.969,14.969,0,0,1-7.642-8.949c1.328-.607,3.034.271,4.557,2.389a15.158,15.158,0,0,0,4.256,4A10.741,10.741,0,0,0,16.56,81.975Z" transform="translate(0)" fill="#fff"/>
  </g>
</svg>
