<svg xmlns="http://www.w3.org/2000/svg" width="40" height="40" viewBox="0 0 40 40">
  <g id="open-book" transform="translate(-0.002)">
    <g id="Group_144" data-name="Group 144" transform="translate(0.002 0)">
      <g id="Group_143" data-name="Group 143">
        <path id="Path_1153" data-name="Path 1153" d="M290.2,199.9a.667.667,0,0,0,.9.291,57.154,57.154,0,0,1,5.9-2.625.667.667,0,0,0-.4-1.272,57.181,57.181,0,0,0-6.1,2.709A.667.667,0,0,0,290.2,199.9Z" transform="translate(-267.464 -180.933)" fill="#fff"/>
        <path id="Path_1154" data-name="Path 1154" d="M290.8,97.868a.666.666,0,0,0,.3-.073A57.152,57.152,0,0,1,297,95.17a.667.667,0,0,0-.4-1.272,57.181,57.181,0,0,0-6.1,2.709.666.666,0,0,0,.3,1.261Z" transform="translate(-267.464 -86.534)" fill="#fff"/>
        <path id="Path_1155" data-name="Path 1155" d="M39.335,10a.666.666,0,0,0-.667.667v26a2,2,0,0,1-2,2h-16V37.132a19.646,19.646,0,0,1,6-1.133,34.387,34.387,0,0,1,9.79,1.3.667.667,0,0,0,.877-.633V7.334a.666.666,0,0,0-.522-.651S36.291,6.566,35.4,6.4a.667.667,0,0,0-.241,1.311c.341.063.626.118.846.162v27.9a37.65,37.65,0,0,0-9.333-1.114,20.944,20.944,0,0,0-6.641,1.277A15.618,15.618,0,0,0,14,34.666,44.926,44.926,0,0,0,4,35.808V7.849A43.882,43.882,0,0,1,14,6.667a14.454,14.454,0,0,1,5.333,1.1V34a.667.667,0,0,0,1.01.571,76.325,76.325,0,0,1,12.534-5.939A.667.667,0,0,0,33.335,28V.667a.668.668,0,0,0-.9-.625A70.918,70.918,0,0,0,21.649,5.435a.667.667,0,1,0,.707,1.131A71.255,71.255,0,0,1,32,1.642V27.523a74.711,74.711,0,0,0-11.333,5.319V7.334a.667.667,0,0,0-.369-.6,15.437,15.437,0,0,0-6.3-1.4A43.269,43.269,0,0,0,3.152,6.693a.666.666,0,0,0-.483.641V36.667a.666.666,0,0,0,.667.667.657.657,0,0,0,.183-.026A42.825,42.825,0,0,1,14,36a14.422,14.422,0,0,1,5.333,1.1v1.567h-16a2,2,0,0,1-2-2v-26a.667.667,0,0,0-1.333,0v26A3.337,3.337,0,0,0,3.335,40H36.669A3.337,3.337,0,0,0,40,36.667v-26A.667.667,0,0,0,39.335,10Z" transform="translate(-0.002 0)" fill="#fff"/>
        <path id="Path_1156" data-name="Path 1156" d="M290.2,148.7a.668.668,0,0,0,.9.291,57.151,57.151,0,0,1,5.9-2.625.667.667,0,0,0-.4-1.272,57.181,57.181,0,0,0-6.1,2.709A.667.667,0,0,0,290.2,148.7Z" transform="translate(-267.464 -133.733)" fill="#fff"/>
        <path id="Path_1157" data-name="Path 1157" d="M290.2,251.1a.668.668,0,0,0,.9.291,57.151,57.151,0,0,1,5.9-2.625.667.667,0,0,0-.4-1.272,57.181,57.181,0,0,0-6.1,2.709A.667.667,0,0,0,290.2,251.1Z" transform="translate(-267.464 -228.133)" fill="#fff"/>
        <path id="Path_1158" data-name="Path 1158" d="M94.819,154.013a21.158,21.158,0,0,0-8.991.317A.667.667,0,0,0,86,155.641a.678.678,0,0,0,.173-.023,20.091,20.091,0,0,1,8.342-.307.667.667,0,1,0,.3-1.3Z" transform="translate(-78.667 -141.641)" fill="#fff"/>
        <path id="Path_1159" data-name="Path 1159" d="M94.819,205.217a21.17,21.17,0,0,0-8.991.317A.667.667,0,0,0,86,206.845a.677.677,0,0,0,.173-.023,20.091,20.091,0,0,1,8.342-.307.667.667,0,1,0,.3-1.3Z" transform="translate(-78.667 -188.845)" fill="#fff"/>
        <path id="Path_1160" data-name="Path 1160" d="M290.2,302.3a.667.667,0,0,0,.9.291,57.146,57.146,0,0,1,5.9-2.625.667.667,0,0,0-.4-1.272,57.188,57.188,0,0,0-6.1,2.709A.667.667,0,0,0,290.2,302.3Z" transform="translate(-267.464 -275.333)" fill="#fff"/>
        <path id="Path_1161" data-name="Path 1161" d="M94.819,256.416a21.158,21.158,0,0,0-8.991.317A.667.667,0,0,0,86,258.044a.676.676,0,0,0,.173-.023,20.091,20.091,0,0,1,8.342-.307.667.667,0,1,0,.3-1.3Z" transform="translate(-78.667 -236.043)" fill="#fff"/>
        <path id="Path_1162" data-name="Path 1162" d="M94.819,358.813a21.158,21.158,0,0,0-8.991.317A.667.667,0,0,0,86,360.442a.676.676,0,0,0,.173-.023,20.091,20.091,0,0,1,8.342-.307.667.667,0,1,0,.3-1.3Z" transform="translate(-78.667 -330.441)" fill="#fff"/>
        <path id="Path_1163" data-name="Path 1163" d="M94.819,307.612a21.146,21.146,0,0,0-8.991.317A.667.667,0,0,0,86,309.241a.675.675,0,0,0,.173-.023,20.092,20.092,0,0,1,8.342-.307.667.667,0,1,0,.3-1.3Z" transform="translate(-78.667 -283.24)" fill="#fff"/>
      </g>
    </g>
  </g>
</svg>
