<svg xmlns="http://www.w3.org/2000/svg" width="40" height="39.998" viewBox="0 0 40 39.998">
  <g id="round-table" transform="translate(-0.001 0.001)">
    <path id="Path_1164" data-name="Path 1164" d="M40.65,242.932A5.88,5.88,0,0,0,40,235.383l-2.614-2.614a16.2,16.2,0,0,0,.469-6.066.586.586,0,0,0-1.165.129,15.027,15.027,0,0,1-.272,4.969l-.839-.839a2.278,2.278,0,1,0-3.222,3.222l2.2,2.2a15.088,15.088,0,0,1-16.13,6.82l.84-.84a2.278,2.278,0,0,0-3.222-3.221l-2.2,2.2a15.178,15.178,0,0,1-5.067-5.127c-.006-.013-.011-.026-.018-.038-.248-.421-.475-.85-.674-1.28a14.881,14.881,0,0,1-.741-1.912.6.6,0,0,0-.034-.084,15.044,15.044,0,0,1-.595-5.772.586.586,0,0,0-1.167-.106,16.2,16.2,0,0,0,.568,5.974L3.6,235.528a5.878,5.878,0,0,0-.671,7.513l-.059.059a2.332,2.332,0,0,0,0,3.3l1.086,1.086a2.334,2.334,0,0,0,3.3,0l.052-.053a5.841,5.841,0,0,0,3.383,1.077,5.96,5.96,0,0,0,1.084-.1.586.586,0,0,0-.213-1.152,4.69,4.69,0,0,1-3.409-.67l1.234-1.234a2.317,2.317,0,0,0,.613-1.079,2.224,2.224,0,0,0,2.837-.254l1.518-1.518,0,0,2.527-2.527a1.109,1.109,0,0,1,1.566,0,1.106,1.106,0,0,1,0,1.563L16.881,243.1l-.006.006-2.852,2.851a4.8,4.8,0,0,1-.495.431.586.586,0,1,0,.707.934,5.9,5.9,0,0,0,.616-.537l2.613-2.613a16.227,16.227,0,0,0,8.746-.068l2.534,2.535a5.863,5.863,0,0,0,3.921,1.718q.119.005.238,0a5.856,5.856,0,0,0,3.354-1.052l.059.059a2.335,2.335,0,0,0,3.3,0l1.086-1.086a2.331,2.331,0,0,0,0-3.3ZM3.048,239.5a4.694,4.694,0,0,1,1.376-3.139l2.108-2.108a16.134,16.134,0,0,0,.991,2.137L6.359,237.55a2.223,2.223,0,0,0-.276,2.805A2.319,2.319,0,0,0,5,240.968L3.768,242.2A4.691,4.691,0,0,1,3.048,239.5Zm5.5,5.028-1.7,1.7h0l-.428.428a1.162,1.162,0,0,1-1.641,0L3.693,245.57a1.16,1.16,0,0,1,0-1.641l.419-.419,0,0L5.825,241.8a1.161,1.161,0,0,1,1.637,0L8.5,242.831l.052.052a1.161,1.161,0,0,1,0,1.641ZM12,243.192a1.048,1.048,0,0,1-1.484,0l-1.132-1.131-.006-.006-.506-.506-.58-.58,0,0-1.1-1.1a1.048,1.048,0,0,1,0-1.484l.962-.962a16.329,16.329,0,0,0,1.814,2.28l-.3.3a.586.586,0,0,0,.829.829l.311-.311A16.265,16.265,0,0,0,13,242.2Zm21.188-11.4a1.108,1.108,0,0,1,1.564,0l4.42,4.42a4.733,4.733,0,0,1,.63,5.876l-1.234-1.234a2.321,2.321,0,0,0-1.079-.611,2.221,2.221,0,0,0-.253-2.838l-4.049-4.048A1.108,1.108,0,0,1,33.19,231.791Zm-.28,8.477.305.305a.586.586,0,1,0,.829-.829l-.316-.316a16.308,16.308,0,0,0,1.683-2.195l1,1a1.049,1.049,0,0,1,0,1.484l-1.134,1.134,0,0-1.086,1.086,0,0-1.1,1.1a1.051,1.051,0,0,1-1.484,0l-.968-.969A16.234,16.234,0,0,0,32.911,240.267Zm-.2,6.919a4.7,4.7,0,0,1-3.139-1.375L27.46,243.7c.392-.148.78-.311,1.158-.488.329-.154.658-.321.982-.5l1.167,1.167a2.225,2.225,0,0,0,2.8.276,2.319,2.319,0,0,0,.615,1.086l1.227,1.227A4.7,4.7,0,0,1,32.713,247.186Zm7.161-1.732-1.087,1.086a1.161,1.161,0,0,1-1.641,0l-2.131-2.131a1.16,1.16,0,0,1,0-1.639L36.1,241.68a1.162,1.162,0,0,1,1.639,0l1.713,1.713h0l.418.417a1.16,1.16,0,0,1,0,1.641Zm0,0" transform="translate(-1.725 -208.512)" fill="#fff"/>
    <path id="Path_1165" data-name="Path 1165" d="M6.144,17.541a2.278,2.278,0,0,0,3.221-3.222L7.154,12.108a15.1,15.1,0,0,1,2.019-2.6.632.632,0,0,0,.048-.043.587.587,0,0,0,.052-.061l.069-.07a15.124,15.124,0,0,1,2.9-2.265.593.593,0,0,0,.088-.042c.417-.246.846-.473,1.278-.674a14.994,14.994,0,0,1,1.913-.741.576.576,0,0,0,.1-.042,15.053,15.053,0,0,1,7.692-.282l-.849.849a2.277,2.277,0,0,0,3.221,3.221l2.209-2.208a15.185,15.185,0,0,1,5.173,5.327,21.978,21.978,0,0,1,1.307,2.97.576.576,0,0,0,.04.126v0c.118.389.351.348.535.348h0a.586.586,0,0,0,.414-.172l2.778-2.777a5.879,5.879,0,0,0,.671-7.513l.059-.059a2.332,2.332,0,0,0,0-3.3L37.778,1.022a2.335,2.335,0,0,0-3.3,0l-.052.052a5.883,5.883,0,0,0-7.55.647l-2.6,2.6a16.223,16.223,0,0,0-8.772.06L12.981,1.864a5.88,5.88,0,0,0-7.514-.671l-.059-.059a2.335,2.335,0,0,0-3.3,0L1.024,2.221a2.331,2.331,0,0,0,0,3.3l.053.053a5.88,5.88,0,0,0,.646,7.549ZM32.325,6.427l.024.024,2.193,2.192a1.049,1.049,0,0,1,0,1.484l-.963.963A16.337,16.337,0,0,0,31.767,8.81l.3-.3a.586.586,0,0,0-.829-.829l-.31.31a16.254,16.254,0,0,0-2.194-1.684l.991-.991a1.051,1.051,0,0,1,1.485,0Zm6.358,2.583a4.692,4.692,0,0,1-1.375,3.139l-2.123,2.123a21,21,0,0,0-.982-2.146l1.169-1.169a2.222,2.222,0,0,0,.277-2.805,2.318,2.318,0,0,0,1.086-.613L37.961,6.31A4.689,4.689,0,0,1,38.682,9.011Zm-2.553-7.5a1.156,1.156,0,0,1,.82.339l1.087,1.086a1.161,1.161,0,0,1,0,1.641L37.61,5l0,0-1.7,1.7a1.162,1.162,0,0,1-1.641,0L33.178,5.623a1.162,1.162,0,0,1,0-1.641l2.132-2.131A1.155,1.155,0,0,1,36.13,1.512ZM27.706,2.55a4.734,4.734,0,0,1,5.877-.63L32.349,3.154a2.316,2.316,0,0,0-.612,1.079,2.225,2.225,0,0,0-2.838.253L24.851,8.534a1.108,1.108,0,0,1-1.565,0,1.105,1.105,0,0,1,0-1.564ZM5.317,10.271a1.049,1.049,0,0,1,0-1.484l3.331-3.33a1.05,1.05,0,0,1,1.484,0l.957.957A16.341,16.341,0,0,0,8.807,8.227l-.3-.3a.586.586,0,0,0-.829.829l.3.3a16.24,16.24,0,0,0-1.682,2.2Zm3.7-8.954a4.693,4.693,0,0,1,3.14,1.375L14.258,4.8a16.2,16.2,0,0,0-2.138.99l-1.16-1.16a2.225,2.225,0,0,0-2.8-.276A2.316,2.316,0,0,0,7.54,3.266L6.312,2.039A4.692,4.692,0,0,1,9.013,1.317ZM1.853,3.05,2.939,1.963a1.162,1.162,0,0,1,1.641,0L5,2.388l.006.006,1.7,1.7a1.161,1.161,0,0,1,0,1.641L5.625,6.822a1.162,1.162,0,0,1-1.641,0L1.853,4.691a1.16,1.16,0,0,1,0-1.641Zm.069,3.367L3.156,7.65a2.319,2.319,0,0,0,1.079.612A2.22,2.22,0,0,0,4.488,11.1l4.048,4.048a1.106,1.106,0,0,1-1.564,1.565l-4.421-4.42A4.732,4.732,0,0,1,1.922,6.417Zm0,0" transform="translate(0)" fill="#fff"/>
    <path id="Path_1166" data-name="Path 1166" d="M116.66,279.142l-2.876,2.549a1.1,1.1,0,0,0-.094,1.552l1.584,1.787,0,.006,0,0,1.52,1.714a1.1,1.1,0,0,0,1.552.093l2.876-2.549a1.1,1.1,0,0,0,.094-1.552l-3.113-3.512A1.1,1.1,0,0,0,116.66,279.142Zm.723.925,1.13,1.274-2.75,2.474-1.147-1.295Zm.25,5.857-1.093-1.233,2.75-2.473,1.111,1.252Zm0,0" transform="translate(-104.553 -257.08)" fill="#fff"/>
    <path id="Path_1167" data-name="Path 1167" d="M284.787,130.006l-4.125,3.656a1.189,1.189,0,0,0-.1,1.679l2.994,3.378a1.182,1.182,0,0,0,.818.4l.073,0a1.18,1.18,0,0,0,.787-.3l4.125-3.656a1.189,1.189,0,0,0,.1-1.679l-2.994-3.377A1.191,1.191,0,0,0,284.787,130.006Zm3.8,4.269a.014.014,0,0,1-.006.012h0l-4.125,3.656a.013.013,0,0,1-.013,0,.016.016,0,0,1-.012-.006l-2.994-3.378a.016.016,0,0,1,0-.013.017.017,0,0,1,.006-.012l4.125-3.656a.017.017,0,0,1,.012,0,.017.017,0,0,1,.013.006l2.994,3.378A.015.015,0,0,1,288.587,134.274Zm0,0" transform="translate(-258.365 -119.575)" fill="#fff"/>
  </g>
</svg>
