<svg xmlns="http://www.w3.org/2000/svg" width="40" height="39.741" viewBox="0 0 40 39.741">
  <g id="teacher" transform="translate(0 -1.657)">
    <path id="Path_1149" data-name="Path 1149" d="M110.768,198.855a.584.584,0,0,0-.778.277,1.234,1.234,0,0,1-2.231,0,.584.584,0,0,0-1.055.5,2.4,2.4,0,0,0,4.34,0A.584.584,0,0,0,110.768,198.855Z" transform="translate(-98.316 -181.74)" fill="#fff"/>
    <path id="Path_1150" data-name="Path 1150" d="M373.779,57.377h-2.826a.584.584,0,0,0-.557.409l-1.267,4.05-.357-1.325a.584.584,0,0,0-.564-.432h-1.427a.584.584,0,0,0,0,1.167h.98l.762,2.83a.584.584,0,0,0,.552.432h.012a.584.584,0,0,0,.557-.409l1.738-5.556h2.4a.584.584,0,1,0,0-1.167Z" transform="translate(-337.589 -51.367)" fill="#fff"/>
    <path id="Path_1151" data-name="Path 1151" d="M434.187,88.124a.58.58,0,0,0,.01-.058l.022-.172a.587.587,0,0,0,0-.074,1.723,1.723,0,0,0-3.413-.333.584.584,0,1,0,1.146.225.555.555,0,0,1,1.1.078l-.012.1a2.441,2.441,0,0,1-.377.738c-.7,1.006-1.124,1.556-1.35,1.852-.278.364-.431.564-.333.883a.6.6,0,0,0,.392.4,3.567,3.567,0,0,0,1.012.048c.342,0,.808,0,1.449-.011a.584.584,0,1,0-.015-1.168c-.39,0-.8.008-1.163.01.239-.321.555-.756.965-1.342A3.459,3.459,0,0,0,434.187,88.124Z" transform="translate(-397.143 -77.843)" fill="#fff"/>
    <path id="Path_1152" data-name="Path 1152" d="M37.192,3.73H21.324a1.338,1.338,0,0,0-.243-.531,1.373,1.373,0,0,0-1.115-.569,2.731,2.731,0,0,0-1.532.625,1.8,1.8,0,0,0-.243-.95,1.439,1.439,0,0,0-1.31-.647,3.02,3.02,0,0,0-2.193,1.065,1.644,1.644,0,0,0-.265-.551,1.3,1.3,0,0,0-1.079-.514c-.837,0-1.489.666-2.131,1.482a9.8,9.8,0,0,0-1.037-.5c-.206-.084-.416-.161-.624-.228A5.9,5.9,0,0,0,7.45,2.1H7.426c-.093.006-.187.014-.282.026A3.576,3.576,0,0,0,4.554,3.762a3.437,3.437,0,0,0-3.239.364C-.223,5.374-.41,8.266.745,12.96A2.338,2.338,0,0,0,1.925,16.8c.011.315.023.63.039.944a5.061,5.061,0,0,0,2.678,4.224,8.988,8.988,0,0,0-1.668,2.689.584.584,0,1,0,1.078.449,7.153,7.153,0,0,1,1.793-2.681,5.157,5.157,0,0,0,.955.135q.413.019.828.034l-.721,1.78a.584.584,0,0,0,.686.785l2.384-.61v5.006H5.692a10.541,10.541,0,0,1,.363-1.291.584.584,0,0,0-1.093-.41,11.941,11.941,0,0,0-.548,2.2c-.04.266-.068.526-.086.777H2.984a18.851,18.851,0,0,1,.411-3.608.584.584,0,1,0-1.14-.253A20.559,20.559,0,0,0,1.81,31.3c-.175.488-.618,1.977.17,2.764a2.04,2.04,0,0,0,1.463.474,5.149,5.149,0,0,0,.842-.076,16.672,16.672,0,0,0,.771,4.358A2.4,2.4,0,0,0,4,40.814a.584.584,0,0,0,.584.584H9.608a.584.584,0,0,0,.584-.584V38.993a.585.585,0,0,0-.013-.123c-.222-1.031-.52-3.757.382-5.335.9,1.575.6,4.3.383,5.334a.583.583,0,0,0-.014.124v1.821a.584.584,0,0,0,.584.584h5.029a.584.584,0,0,0,.584-.584,2.4,2.4,0,0,0-1.06-1.993,21.025,21.025,0,0,0,.749-7.459l-.1-1.274v-.012c-.035-.351-.088-.69-.153-1.013H31.524a.584.584,0,0,0,0-1.167H16.261a12.132,12.132,0,0,0-.531-1.4c.5.029,1.138.054,1.83.053A12.411,12.411,0,0,0,21.695,26a1.461,1.461,0,0,0,.58.392l-.179.627a.584.584,0,1,0,1.123.321l.245-.858h.458a1.461,1.461,0,0,0,1.459-1.459V24.4a1.46,1.46,0,0,0-.934-1.36l3.285-11.509a.584.584,0,0,0-1.123-.32L23.26,22.943h-1.3c-.373-.077-2.6-.546-4.994-1.275a5.064,5.064,0,0,0,2.188-3.927q.024-.471.039-.944a2.339,2.339,0,0,0-.035-4.553q-.091-1.858-.308-3.706A10.662,10.662,0,0,0,21.229,4.9H37.192a1.643,1.643,0,0,1,1.641,1.641V26.255A1.643,1.643,0,0,1,37.192,27.9H33.86a.584.584,0,1,0,0,1.167h3.332A2.812,2.812,0,0,0,40,26.255V6.538A2.812,2.812,0,0,0,37.192,3.73Zm-19.4,5.844q.145,1.446.212,2.9l-1.906,1.168a2.431,2.431,0,0,0-4.607.345H9.63a2.431,2.431,0,0,0-4.607-.345L3.975,13a4.5,4.5,0,0,0,1.972-2.591,8.85,8.85,0,0,0,3.864,1.474,10.471,10.471,0,0,0,5.212-.513A9.677,9.677,0,0,0,17.788,9.574Zm-2.677,5a1.264,1.264,0,1,1-1.264-1.264A1.265,1.265,0,0,1,15.111,14.571Zm-6.577,0A1.264,1.264,0,1,1,7.27,13.307,1.265,1.265,0,0,1,8.534,14.571ZM1.31,14.526a1.173,1.173,0,0,1,.6-1.023q-.027,1.017-.015,2.037a1.172,1.172,0,0,1-.586-1.014Zm7.113,9.211.45-1.112q.552.012,1.1.015v.7Zm3.825-1.112.45,1.112-1.554-.4v-.7Q11.7,22.636,12.248,22.625ZM2.805,33.239c-.164-.164-.128-.724.012-1.246H4.269c-.014.33-.026.773-.022,1.291A2.189,2.189,0,0,1,2.805,33.239Zm2.5,6.991A1.239,1.239,0,0,1,6.4,39.577H9.025v.654Zm6.788,0v-.654h2.627a1.239,1.239,0,0,1,1.088.654Zm.107-1.822a14.137,14.137,0,0,0,.138-1.9,5.953,5.953,0,0,0-1.368-4.345.584.584,0,0,0-.826,0A5.953,5.953,0,0,0,8.78,36.5a14.136,14.136,0,0,0,.138,1.9H6.148c-.987-2.909-.663-7.451-.64-7.691H15.592l.059.742a20.289,20.289,0,0,1-.678,6.949ZM24.213,25.027a.292.292,0,0,1-.291.291H22.776a.292.292,0,0,1-.291-.291V24.11h1.437a.292.292,0,0,1,.291.291ZM21.317,24v.9a11.26,11.26,0,0,1-3.748.484c-1.5,0-2.765-.128-2.777-.129a.584.584,0,0,0-.556.89,10.526,10.526,0,0,1,1.227,3.406H11.145V24.544l2.384.61a.584.584,0,0,0,.686-.785l-.721-1.78q.412-.015.823-.034a5.146,5.146,0,0,0,1.074-.166A59.116,59.116,0,0,0,21.317,24Zm-3.329-6.318a3.9,3.9,0,0,1-3.726,3.708c-2.458.116-4.95.116-7.407,0A3.9,3.9,0,0,1,3.13,17.681c-.066-1.281-.085-2.577-.058-3.866l1.791,1.1a2.431,2.431,0,0,0,4.767.242h1.857a2.431,2.431,0,0,0,4.767-.242l1.79-1.1Q18.085,15.753,17.988,17.681Zm1.82-3.156a1.172,1.172,0,0,1-.586,1.014q.011-1.018-.016-2.038A1.173,1.173,0,0,1,19.807,14.526Zm.32-10.014c-.492,1.744-3.314,4.915-5.525,5.769-2.883,1.114-6.734.514-8.584-1.336a.584.584,0,0,0-.99.328c0,.029-.45,2.913-2.507,2.913H2.482a2.332,2.332,0,0,0-.7.106C1.207,9.8.661,6.167,2.048,5.035c.939-.766,2.486-.032,2.5-.025a.584.584,0,0,0,.776-.256A2.481,2.481,0,0,1,7.289,3.287c.066-.008.133-.014.2-.019l.03,0A4.746,4.746,0,0,1,9.2,3.525c.179.058.361.124.54.2.293.12.552.246.762.357A4.32,4.32,0,0,1,8.939,5.54a.584.584,0,0,0,.4,1.1,6.1,6.1,0,0,0,2.382-2.243c.527-.7,1.182-1.568,1.619-1.568.109,0,.131.029.149.053a3.059,3.059,0,0,1-.044,1.853.584.584,0,0,0,1.109.363c.009-.023.9-2.269,2.323-2.269.172,0,.28.034.322.1A3.076,3.076,0,0,1,16.822,4.9a.584.584,0,0,0,.987.612C18.348,4.82,19.4,3.8,19.958,3.8h0a.216.216,0,0,1,.192.11c.049.064.071.261-.026.6Z" transform="translate(0)" fill="#fff"/>
  </g>
</svg>
