<svg xmlns="http://www.w3.org/2000/svg" width="24" height="22.5" viewBox="0 0 24 22.5">
  <g id="doc" transform="translate(0 -15.995)">
    <path id="Path_1425" data-name="Path 1425" d="M267.25,96.5h-10.5a.749.749,0,0,1-.75-.75v-15a.75.75,0,0,1,.75-.75h10.5a.75.75,0,0,1,.75.75v15A.749.749,0,0,1,267.25,96.5Z" transform="translate(-244 -61.008)" fill="#eceff1"/>
    <g id="Group_313" data-name="Group 313" transform="translate(12 21.996)">
      <path id="Path_1426" data-name="Path 1426" d="M264.25,145.5h-7.5a.75.75,0,0,1,0-1.5h7.5a.75.75,0,0,1,0,1.5Z" transform="translate(-256 -144.004)" fill="#1976d2"/>
      <path id="Path_1427" data-name="Path 1427" d="M264.25,209.5h-7.5a.75.75,0,0,1,0-1.5h7.5a.75.75,0,0,1,0,1.5Z" transform="translate(-256 -205.004)" fill="#1976d2"/>
      <path id="Path_1428" data-name="Path 1428" d="M264.25,273.5h-7.5a.75.75,0,0,1,0-1.5h7.5a.75.75,0,0,1,0,1.5Z" transform="translate(-256 -266.004)" fill="#1976d2"/>
      <path id="Path_1429" data-name="Path 1429" d="M264.25,337.5h-7.5a.75.75,0,0,1,0-1.5h7.5a.75.75,0,0,1,0,1.5Z" transform="translate(-256 -327.004)" fill="#1976d2"/>
    </g>
    <path id="Path_1430" data-name="Path 1430" d="M13.229,16.17a.738.738,0,0,0-.617-.16l-12,2.25A.751.751,0,0,0,0,19V35.5a.749.749,0,0,0,.612.736l12,2.25a.717.717,0,0,0,.138.014.75.75,0,0,0,.75-.75v-21A.745.745,0,0,0,13.229,16.17Z" fill="#1565c0"/>
    <path id="Path_1431" data-name="Path 1431" d="M70.743,183.563a.75.75,0,0,1-.653.66.647.647,0,0,1-.093.006.752.752,0,0,1-.7-.486l-1.548-4.128L66.2,183.743a.75.75,0,0,1-1.444-.159l-.75-5.25a.75.75,0,0,1,1.485-.211l.335,2.346,1.22-3.253a.782.782,0,0,1,1.405,0l1.149,3.063.4-3.633a.75.75,0,1,1,1.491.167Z" transform="translate(-60.998 -152.483)" fill="#fafafa"/>
  </g>
</svg>
